<svg width="322" height="292" viewBox="0 0 322 292" fill="none" xmlns="http://www.w3.org/2000/svg">
<path d="M322 0L322 292L-1.27637e-05 292L0 -1.40751e-05L322 0Z" fill="#1C1F35" fill-opacity="0.91"/>
<path d="M175 141.545V132H165.454" stroke="white" stroke-width="2" stroke-linecap="round" stroke-linejoin="round"/>
<path d="M163.546 143.455L175 132" stroke="white" stroke-width="2" stroke-linecap="round" stroke-linejoin="round"/>
<path d="M169.909 148.545V158.727C169.909 159.065 169.775 159.388 169.536 159.627C169.298 159.866 168.974 160 168.636 160H148.273C147.935 160 147.611 159.866 147.373 159.627C147.134 159.388 147 159.065 147 158.727V138.364C147 138.026 147.134 137.702 147.373 137.464C147.611 137.225 147.935 137.091 148.273 137.091H158.455" stroke="white" stroke-width="2" stroke-linecap="round" stroke-linejoin="round"/>
</svg>
